<?xml version="1.0" encoding="UTF-8" standalone="no"?><!-- Generator: Gravit.io --><svg xmlns="http://www.w3.org/2000/svg" xmlns:xlink="http://www.w3.org/1999/xlink" style="isolation:isolate" viewBox="0 0 64 64" width="64pt" height="64pt"><defs><clipPath id="_clipPath_3zur1uJGgcRCOouDuBSmNzWIZZZDR1ny"><rect width="64" height="64"/></clipPath></defs><g clip-path="url(#_clipPath_3zur1uJGgcRCOouDuBSmNzWIZZZDR1ny)"><path d=" M 39.77 20 L 32 27.77 L 24.23 20 L 20 24.23 L 27.77 32 L 20 39.77 L 24.23 44 L 32 36.23 L 39.77 44 L 44 39.77 L 36.23 32 L 44 24.23 L 39.77 20 Z  M 32 2 C 15.41 2 2 15.41 2 32 C 2 48.59 15.41 62 32 62 C 48.59 62 62 48.59 62 32 C 62 15.41 48.59 2 32 2 Z  M 32 56 C 18.77 56 8 45.23 8 32 C 8 18.77 18.77 8 32 8 C 45.23 8 56 18.77 56 32 C 56 45.23 45.23 56 32 56 Z " fill="rgb(63,81,181)"/></g></svg>