<?xml version="1.0" encoding="UTF-8" standalone="no"?><!-- Generator: Gravit.io --><svg xmlns="http://www.w3.org/2000/svg" xmlns:xlink="http://www.w3.org/1999/xlink" style="isolation:isolate" viewBox="0 0 64 64" width="64pt" height="64pt"><g><linearGradient id="_lgradient_1" x1="0" y1="0.5" x2="1" y2="0.5" gradientTransform="matrix(10.151,-0.322,0.322,10.151,41.782,11.226)" gradientUnits="userSpaceOnUse"><stop offset="0%" stop-opacity="1" style="stop-color:rgb(164,20,20)"/><stop offset="98.33333333333333%" stop-opacity="1" style="stop-color:rgb(255,153,0)"/></linearGradient><path d=" M 41.943 16.301 L 47.179 21.215 L 52.093 15.979 L 49.556 16.059 L 51.932 10.903 L 46.938 13.602 L 46.857 11.064 L 41.943 16.301 Z " fill="url(#_lgradient_1)" vector-effect="non-scaling-stroke" stroke-width="2" stroke="rgb(0,0,0)" stroke-linejoin="round" stroke-linecap="round" stroke-miterlimit="3"/><line x1="39.907" y1="23.097" x2="41.907" y2="21.097" vector-effect="non-scaling-stroke" stroke-width="3" stroke="rgb(0,0,0)" stroke-linejoin="round" stroke-linecap="round" stroke-miterlimit="3"/><path d=" M 33.326 24.538 C 31.379 23.614 29.203 23.097 26.907 23.097 C 18.628 23.097 11.907 29.818 11.907 38.097 C 11.907 46.375 18.628 53.097 26.907 53.097 C 35.185 53.097 41.907 46.375 41.907 38.097 C 41.907 34.722 40.79 31.606 38.905 29.098 L 41.219 26.4 L 35.749 21.711 L 33.326 24.538 Z " fill-rule="evenodd" fill="none" vector-effect="non-scaling-stroke" stroke-width="3" stroke="rgb(0,0,0)" stroke-linejoin="round" stroke-linecap="round" stroke-miterlimit="3"/></g></svg>